# xmcd
#
# Track frame offsets: 
#        150
#        12672
#        28962
#        42262
#        54197
#        68135
#        82520
#        97032
#        111460
#        123932
#        134912
#        154330
#
# Disc length: 2238 seconds
#
# Revision: 0
# Processed by: cddbd v1.5.1PL0 Copyright (c) Steve Scherf et al.
# Submitted via: ExactAudioCopy v0.95a4
#
DISCID=a508bc0c
DTITLE=Tom Armstrong - Sings Heart Songs
DYEAR=1900
DGENRE=Country
TTITLE0=Thinking Of Him
TTITLE1=Looking Forward To Looking Back
TTITLE2=What Did I Lose
TTITLE3=River and Railroad Track
TTITLE4=Start Talking
TTITLE5=I Wonder If I'll Ever Love Again
TTITLE6=See The Sun Again
TTITLE7=Sleep Never Will Come
TTITLE8=Lonely Alone
TTITLE9=Get While The Getting's Good
TTITLE10=I'm Damned
TTITLE11=If I Only Knew
EXTD=
EXTT0=
EXTT1=
EXTT2=
EXTT3=
EXTT4=
EXTT5=
EXTT6=
EXTT7=
EXTT8=
EXTT9=
EXTT10=
EXTT11=
PLAYORDER=
